<svg width="48" height="48" viewBox="0 0 48 48" fill="none" xmlns="http://www.w3.org/2000/svg">
<g id="Logo">
<path id="Union" fill-rule="evenodd" clip-rule="evenodd" d="M15.4513 30.4271C16.2448 30.8473 17.1496 31.0279 18.0496 30.9456C18.9496 30.8634 19.8037 30.522 20.5024 29.9654C21.2011 29.4088 21.7125 28.6623 21.971 27.8217C22.2294 26.9811 22.2232 26.0847 21.953 25.2476C21.6105 24.1801 21.4885 23.0576 21.594 21.9443C21.6995 20.831 22.0303 19.7489 22.5676 18.7599C23.1049 17.771 23.8381 16.8947 24.7251 16.1812C25.6121 15.4678 26.6354 14.9313 27.7365 14.6024C28.5905 14.3428 29.3462 13.8439 29.9087 13.1685C30.4711 12.4931 30.8151 11.6714 30.8974 10.8066C30.9797 9.94191 30.7966 9.07287 30.3712 8.30895C29.9457 7.54498 29.2969 6.92019 28.5064 6.51325C27.7158 6.1063 26.819 5.93531 25.9286 6.02188C25.0382 6.1084 24.194 6.44856 23.5023 6.9996C22.8107 7.55058 22.3024 8.28782 22.0415 9.11848C21.7806 9.94913 21.7788 10.8361 22.0361 11.6678C22.7117 13.8149 22.4833 16.1344 21.4008 18.1185C20.3183 20.1025 18.4699 21.5896 16.2602 22.2543C15.3879 22.4998 14.6116 22.9937 14.0318 23.6721C13.452 24.3506 13.0954 25.1823 13.0082 26.0596C12.9211 26.937 13.1074 27.8195 13.543 28.5929C13.9785 29.3664 14.6433 29.9951 15.4513 30.3977V30.4271ZM43.3407 35.3131C43.02 34.8178 42.6007 34.3894 42.1074 34.0531C41.6142 33.7167 41.0567 33.4792 40.4678 33.3543C38.2144 32.8458 36.2601 31.4923 35.0319 29.5898C33.8037 27.6872 33.4015 25.3902 33.9131 23.2007C34.1099 22.3545 34.0445 21.4707 33.7253 20.6604C33.4061 19.8501 32.8473 19.1493 32.1191 18.6462C31.3908 18.1431 30.5256 17.86 29.6321 17.8325C28.7386 17.805 27.8567 18.0343 27.097 18.4916C26.3374 18.9489 25.7339 19.6138 25.3624 20.4028C24.9909 21.1919 24.8679 22.0699 25.009 22.9265C25.15 23.7831 25.5487 24.5803 26.155 25.2177C26.7613 25.8552 27.5483 26.3046 28.4169 26.5095C29.5407 26.7554 30.6034 27.2142 31.5441 27.8596C32.4848 28.5048 33.285 29.324 33.8989 30.27C34.5127 31.216 34.9281 32.2702 35.1213 33.3723C35.3145 34.4744 35.2816 35.6027 35.0246 36.6924C34.8723 37.3949 34.8995 38.1229 35.1036 38.8129C35.3078 39.5028 35.6827 40.1339 36.1958 40.651C36.7089 41.1682 37.3444 41.5557 38.0472 41.7799C38.75 42.004 39.4985 42.0579 40.2277 41.937C40.9569 41.8161 41.6445 41.5239 42.2307 41.086C42.8169 40.6481 43.2837 40.0777 43.5907 39.4246C43.8976 38.7714 44.0353 38.0554 43.9918 37.3388C43.9482 36.6221 43.7247 35.9267 43.3407 35.3131ZM25.3807 30.1114C25.9285 29.8657 26.5213 29.7286 27.1244 29.708C27.8653 29.6897 28.5995 29.848 29.2629 30.1687C29.9262 30.4895 30.4984 30.9631 30.9295 31.5481C31.3606 32.1331 31.6374 32.8117 31.7357 33.5245C31.834 34.2374 31.7508 34.9627 31.4935 35.6372C31.2361 36.3116 30.8123 36.9146 30.2592 37.3934C29.7062 37.8721 29.0407 38.2121 28.321 38.3835C27.6012 38.5549 26.8491 38.5526 26.1305 38.3767C25.4119 38.2008 24.7486 37.8568 24.1987 37.3746C23.354 36.6136 22.3629 36.0218 21.2822 35.633C20.2014 35.2443 19.0523 35.0663 17.9005 35.1093C16.7488 35.1522 15.6171 35.4152 14.5702 35.8833C13.5234 36.3513 12.5821 37.0151 11.8 37.8368C11.2859 38.3538 10.6493 38.7407 9.94554 38.9639C9.24188 39.1872 8.49255 39.2398 7.76305 39.1174C7.03355 38.995 6.34605 38.7012 5.76049 38.2616C5.17492 37.822 4.70918 37.25 4.40382 36.5955C4.09846 35.941 3.96285 35.224 4.00874 34.507C4.05468 33.7899 4.28072 33.0947 4.66724 32.4819C5.05371 31.8692 5.58884 31.3576 6.22601 30.9917C6.86312 30.6258 7.5829 30.4168 8.32239 30.383C8.92318 30.3602 9.52263 30.4535 10.0859 30.6575C10.6492 30.8616 11.165 31.1723 11.6035 31.5715C13.3004 33.0954 15.5502 33.9055 17.8608 33.8243C20.1714 33.7432 22.355 32.7776 23.934 31.1387C24.3411 30.7062 24.8328 30.357 25.3807 30.1114Z" fill="white"/>
</g>
</svg>
